<svg xmlns="http://www.w3.org/2000/svg" width="32" height="32" viewBox="0 0 24 24" fill="none" stroke="#eab308" stroke-width="2" stroke-linecap="round" stroke-linejoin="round">
  <path d="m11.9 12.1 4.514-4.514"/>
  <path d="M20.1 2.3a1 1 0 0 0-1.4 0l-1.114 1.114A2 2 0 0 0 17 4.828v1.344a2 2 0 0 1-.586 1.414A2 2 0 0 1 15 8.172H13.657a2 2 0 0 0-1.414.586l-1.414 1.414a2 2 0 0 0-.586 1.414V12.9a2 2 0 0 1-2 2H7.328a2 2 0 0 1-1.414-.586l-1.114-1.114a1 1 0 0 0-1.4 0l-1.114 1.114a1 1 0 0 0 0 1.4l4.828 4.828a1 1 0 0 0 1.4 0l1.114-1.114a2 2 0 0 0 .586-1.414v-1.172a2 2 0 0 1 .586-1.414l1.414-1.414A2 2 0 0 1 13.228 14h1.344a2 2 0 0 0 1.414-.586l1.114-1.114a1 1 0 0 0 0-1.4z"/>
  <circle cx="11.5" cy="12.5" r="1"/>
  <path d="M4 22a2 2 0 0 1-2-2"/>
  <path d="M22 4a2 2 0 0 0-2-2"/>
</svg>



